<svg id="_024-planning-1" data-name="024-planning-1" xmlns="http://www.w3.org/2000/svg" xmlns:xlink="http://www.w3.org/1999/xlink" width="72.077" height="72.076" viewBox="0 0 72.077 72.076">
  <defs>
    <linearGradient id="linear-gradient" x1="0.5" x2="0.5" y2="1" gradientUnits="objectBoundingBox">
      <stop offset="0" stop-color="#6362d7"/>
      <stop offset="1" stop-color="#a742a7"/>
    </linearGradient>
    <linearGradient id="linear-gradient-2" x1="0.5" x2="0.5" y2="1" gradientUnits="objectBoundingBox">
      <stop offset="0" stop-color="#6362d7"/>
      <stop offset="1" stop-color="#32316c"/>
    </linearGradient>
  </defs>
  <g id="Group_2986" data-name="Group 2986" transform="translate(0.001 20.187)">
    <g id="Group_2985" data-name="Group 2985">
      <path id="Path_10005" data-name="Path 10005" d="M1.51,143.4l-1.5,2.337a1.5,1.5,0,0,0,3,0Z" transform="translate(-0.008 -143.404)"/>
    </g>
  </g>
  <g id="Group_2988" data-name="Group 2988" transform="translate(0 0)">
    <g id="Group_2987" data-name="Group 2987" style="isolation: isolate">
      <path id="Path_10006" data-name="Path 10006" d="M60.065,0A12.025,12.025,0,0,0,48.156,10.513H7.51a7.219,7.219,0,0,0-7.5,6.924q-.008.21,0,.42v.177a1.5,1.5,0,0,0,1.023,1.4,1.486,1.486,0,0,0,.479.087,1.433,1.433,0,0,0,.484-.081v.007a1.5,1.5,0,0,0,1.018-1.421,4.284,4.284,0,0,1,4.5-4.512H48.052V60.065a1.5,1.5,0,1,0,3,0,9.009,9.009,0,1,1,9.009,9.009H31.535a1.5,1.5,0,0,0,0,3h28.53A12.029,12.029,0,0,0,71.86,62.345a1.492,1.492,0,0,0,.218-.778V12.015A12.026,12.026,0,0,0,60.065,0Zm9.009,52.126a12,12,0,0,0-18.019,0V12.015a9.009,9.009,0,0,1,18.019,0Z" transform="translate(-0.001 -0.002)" fill="url(#linear-gradient)"/>
    </g>
  </g>
  <g id="Group_2990" data-name="Group 2990" transform="translate(18.02 18.019)">
    <g id="Group_2989" data-name="Group 2989">
      <path id="Path_10007" data-name="Path 10007" d="M133.893,128.913a1.5,1.5,0,0,0-2.76,0c-3.125,7.316-3.125,7.75-3.125,8.1v28.53a1.5,1.5,0,0,0,3,0V137.177c.15-.494.76-2.009,1.5-3.8.742,1.793,1.351,3.3,1.5,3.8v32.868h-4.5a1.5,1.5,0,0,0-1.5,1.5v7.508a3,3,0,0,0,3,3h3a3,3,0,0,0,3-3V137.011C137.017,136.662,137.017,136.228,133.893,128.913Zm.122,50.142h-3v-6.006h3Z" transform="translate(-128.008 -128.001)" fill="url(#linear-gradient-2)"/>
    </g>
  </g>
  <g id="Group_2992" data-name="Group 2992" transform="translate(0.001 27.028)">
    <g id="Group_2991" data-name="Group 2991">
      <path id="Path_10008" data-name="Path 10008" d="M12.017,192H3.008a3,3,0,0,0-3,3v39.041a2.941,2.941,0,0,0,2.879,3h9.134a2.942,2.942,0,0,0,3-2.879c0-.042,0-.083,0-.124V195.005A3,3,0,0,0,12.017,192Zm0,42.044L3.008,234v-7.466h3a1.5,1.5,0,1,0,0-3h-3v-7.508h4.5a1.5,1.5,0,0,0,0-3h-4.5v-7.508h3a1.5,1.5,0,1,0,0-3h-3V195h9.009v39.041Z" transform="translate(-0.004 -192.002)" fill="url(#linear-gradient-2)"/>
    </g>
  </g>
  <g id="Group_2994" data-name="Group 2994" transform="translate(30.032 22.524)">
    <g id="Group_2993" data-name="Group 2993">
      <path id="Path_10009" data-name="Path 10009" d="M223.852,160h-9.009a1.5,1.5,0,0,0,0,3h9.009v6.006h-9.009a1.5,1.5,0,0,0-1.5,1.5v21.022a1.5,1.5,0,0,0,3,0V172.015h7.508V196.04h-9.009a1.5,1.5,0,1,0,0,3h9.009a3,3,0,0,0,3-3V163.005A3,3,0,0,0,223.852,160Z" transform="translate(-213.341 -160.002)" fill="url(#linear-gradient-2)"/>
    </g>
  </g>
</svg>
