<svg xmlns="http://www.w3.org/2000/svg" width="72.077" height="72.076" viewBox="0 0 72.077 72.076">
  <g id="Group_2988" data-name="Group 2988" transform="translate(0 0)">
    <g id="Group_2987" data-name="Group 2987">
      <path id="Path_10006" data-name="Path 10006" d="M60.065,0A12.025,12.025,0,0,0,48.156,10.513H7.51a7.219,7.219,0,0,0-7.5,6.924q-.008.21,0,.42v.177a1.5,1.5,0,0,0,1.023,1.4,1.486,1.486,0,0,0,.479.087,1.433,1.433,0,0,0,.484-.081v.007a1.5,1.5,0,0,0,1.018-1.421,4.284,4.284,0,0,1,4.5-4.512H48.052V60.065a1.5,1.5,0,1,0,3,0,9.009,9.009,0,1,1,9.009,9.009H31.535a1.5,1.5,0,0,0,0,3h28.53A12.029,12.029,0,0,0,71.86,62.345a1.492,1.492,0,0,0,.218-.778V12.015A12.026,12.026,0,0,0,60.065,0Zm9.009,52.126a12,12,0,0,0-18.019,0V12.015a9.009,9.009,0,0,1,18.019,0Z" transform="translate(-0.001 -0.002)"/>
    </g>
  </g>
</svg>
