<svg xmlns="http://www.w3.org/2000/svg" xmlns:xlink="http://www.w3.org/1999/xlink" width="180.824" height="184.777" viewBox="0 0 180.824 184.777">
  <defs>
    <clipPath id="clip-path">
      <ellipse id="Ellipse_28" data-name="Ellipse 28" cx="90.412" cy="92.388" rx="90.412" ry="92.388" fill="none"/>
    </clipPath>
  </defs>
  <g id="Group_19" data-name="Group 19" clip-path="url(#clip-path)">
    <g id="Group_18" data-name="Group 18" transform="translate(0.891 -0.666)">
      <rect id="Rectangle_69" data-name="Rectangle 69" width="4.392" height="4.58" transform="translate(0 2.221) rotate(-0.721)" fill="#fe85b2"/>
      <rect id="Rectangle_70" data-name="Rectangle 70" width="4.392" height="4.58" transform="translate(24.713 1.911) rotate(-0.718)" fill="#fe85b2"/>
      <rect id="Rectangle_71" data-name="Rectangle 71" width="4.392" height="4.58" transform="matrix(1, -0.013, 0.013, 1, 49.425, 1.602)" fill="#fe85b2"/>
      <rect id="Rectangle_72" data-name="Rectangle 72" width="4.392" height="4.58" transform="translate(74.137 1.293) rotate(-0.718)" fill="#fe85b2"/>
      <rect id="Rectangle_73" data-name="Rectangle 73" width="4.392" height="4.58" transform="translate(98.849 0.983) rotate(-0.718)" fill="#fe85b2"/>
      <rect id="Rectangle_74" data-name="Rectangle 74" width="4.392" height="4.58" transform="translate(123.562 0.674) rotate(-0.718)" fill="#fe85b2"/>
      <rect id="Rectangle_75" data-name="Rectangle 75" width="4.392" height="4.58" transform="matrix(1, -0.012, 0.012, 1, 148.274, 0.364)" fill="#fe85b2"/>
      <rect id="Rectangle_76" data-name="Rectangle 76" width="4.392" height="4.58" transform="translate(172.986 0.055) rotate(-0.718)" fill="#fe85b2"/>
      <rect id="Rectangle_77" data-name="Rectangle 77" width="4.392" height="4.58" transform="translate(0.322 27.959) rotate(-0.718)" fill="#fe85b2"/>
      <rect id="Rectangle_78" data-name="Rectangle 78" width="4.392" height="4.58" transform="matrix(1, -0.012, 0.012, 1, 25.035, 27.65)" fill="#fe85b2"/>
      <rect id="Rectangle_79" data-name="Rectangle 79" width="4.392" height="4.58" transform="matrix(1, -0.012, 0.012, 1, 49.747, 27.34)" fill="#fe85b2"/>
      <rect id="Rectangle_80" data-name="Rectangle 80" width="4.392" height="4.58" transform="translate(74.459 27.031) rotate(-0.715)" fill="#fe85b2"/>
      <rect id="Rectangle_81" data-name="Rectangle 81" width="4.392" height="4.58" transform="translate(99.172 26.722) rotate(-0.718)" fill="#fe85b2"/>
      <rect id="Rectangle_82" data-name="Rectangle 82" width="4.392" height="4.58" transform="translate(123.884 26.412) rotate(-0.715)" fill="#fe85b2"/>
      <rect id="Rectangle_83" data-name="Rectangle 83" width="4.392" height="4.58" transform="translate(148.596 26.103) rotate(-0.718)" fill="#fe85b2"/>
      <rect id="Rectangle_84" data-name="Rectangle 84" width="4.392" height="4.58" transform="matrix(1, -0.012, 0.012, 1, 173.308, 25.794)" fill="#fe85b2"/>
      <rect id="Rectangle_85" data-name="Rectangle 85" width="4.392" height="4.58" transform="translate(0.645 53.698) rotate(-0.718)" fill="#fe85b2"/>
      <rect id="Rectangle_86" data-name="Rectangle 86" width="4.392" height="4.58" transform="translate(25.357 53.388) rotate(-0.718)" fill="#fe85b2"/>
      <rect id="Rectangle_87" data-name="Rectangle 87" width="4.392" height="4.58" transform="matrix(1, -0.012, 0.012, 1, 50.069, 53.079)" fill="#fe85b2"/>
      <rect id="Rectangle_88" data-name="Rectangle 88" width="4.392" height="4.58" transform="matrix(1, -0.013, 0.013, 1, 74.781, 52.77)" fill="#fe85b2"/>
      <rect id="Rectangle_89" data-name="Rectangle 89" width="4.392" height="4.58" transform="translate(99.494 52.46) rotate(-0.718)" fill="#fe85b2"/>
      <rect id="Rectangle_90" data-name="Rectangle 90" width="4.392" height="4.58" transform="translate(124.206 52.151) rotate(-0.718)" fill="#fe85b2"/>
      <rect id="Rectangle_91" data-name="Rectangle 91" width="4.392" height="4.58" transform="matrix(1, -0.013, 0.013, 1, 148.918, 51.841)" fill="#fe85b2"/>
      <rect id="Rectangle_92" data-name="Rectangle 92" width="4.392" height="4.58" transform="translate(173.631 51.532) rotate(-0.715)" fill="#fe85b2"/>
      <rect id="Rectangle_93" data-name="Rectangle 93" width="4.392" height="4.58" transform="matrix(1, -0.013, 0.013, 1, 0.967, 79.436)" fill="#fe85b2"/>
      <rect id="Rectangle_94" data-name="Rectangle 94" width="4.392" height="4.58" transform="translate(25.679 79.127) rotate(-0.718)" fill="#fe85b2"/>
      <rect id="Rectangle_95" data-name="Rectangle 95" width="4.392" height="4.58" transform="translate(50.391 78.817) rotate(-0.718)" fill="#fe85b2"/>
      <rect id="Rectangle_96" data-name="Rectangle 96" width="4.392" height="4.58" transform="translate(75.104 78.508) rotate(-0.718)" fill="#fe85b2"/>
      <rect id="Rectangle_97" data-name="Rectangle 97" width="4.392" height="4.58" transform="translate(99.816 78.199) rotate(-0.718)" fill="#fe85b2"/>
      <rect id="Rectangle_98" data-name="Rectangle 98" width="4.392" height="4.58" transform="translate(124.528 77.889) rotate(-0.718)" fill="#fe85b2"/>
      <rect id="Rectangle_99" data-name="Rectangle 99" width="4.392" height="4.58" transform="translate(149.24 77.58) rotate(-0.718)" fill="#fe85b2"/>
      <rect id="Rectangle_100" data-name="Rectangle 100" width="4.392" height="4.58" transform="translate(173.953 77.271) rotate(-0.718)" fill="#fe85b2"/>
      <rect id="Rectangle_101" data-name="Rectangle 101" width="4.392" height="4.58" transform="translate(1.289 105.175) rotate(-0.715)" fill="#fe85b2"/>
      <rect id="Rectangle_102" data-name="Rectangle 102" width="4.392" height="4.58" transform="matrix(1, -0.012, 0.012, 1, 26.001, 104.865)" fill="#fe85b2"/>
      <rect id="Rectangle_103" data-name="Rectangle 103" width="4.392" height="4.58" transform="matrix(1, -0.012, 0.012, 1, 50.714, 104.556)" fill="#fe85b2"/>
      <rect id="Rectangle_104" data-name="Rectangle 104" width="4.392" height="4.58" transform="translate(75.426 104.247) rotate(-0.718)" fill="#fe85b2"/>
      <rect id="Rectangle_105" data-name="Rectangle 105" width="4.392" height="4.58" transform="translate(100.138 103.937) rotate(-0.721)" fill="#fe85b2"/>
      <rect id="Rectangle_106" data-name="Rectangle 106" width="4.392" height="4.58" transform="translate(124.85 103.628) rotate(-0.718)" fill="#fe85b2"/>
      <rect id="Rectangle_107" data-name="Rectangle 107" width="4.392" height="4.58" transform="translate(149.563 103.319) rotate(-0.718)" fill="#fe85b2"/>
      <rect id="Rectangle_108" data-name="Rectangle 108" width="4.392" height="4.58" transform="translate(174.275 103.009) rotate(-0.718)" fill="#fe85b2"/>
      <rect id="Rectangle_109" data-name="Rectangle 109" width="4.392" height="4.58" transform="translate(1.611 130.913) rotate(-0.718)" fill="#fe85b2"/>
      <rect id="Rectangle_110" data-name="Rectangle 110" width="4.392" height="4.58" transform="translate(26.324 130.604) rotate(-0.718)" fill="#fe85b2"/>
      <rect id="Rectangle_111" data-name="Rectangle 111" width="4.392" height="4.58" transform="translate(51.036 130.295) rotate(-0.718)" fill="#fe85b2"/>
      <rect id="Rectangle_112" data-name="Rectangle 112" width="4.392" height="4.58" transform="translate(75.748 129.985) rotate(-0.715)" fill="#fe85b2"/>
      <rect id="Rectangle_113" data-name="Rectangle 113" width="4.392" height="4.58" transform="translate(100.46 129.676) rotate(-0.715)" fill="#fe85b2"/>
      <rect id="Rectangle_114" data-name="Rectangle 114" width="4.392" height="4.58" transform="translate(125.173 129.366) rotate(-0.715)" fill="#fe85b2"/>
      <rect id="Rectangle_115" data-name="Rectangle 115" width="4.392" height="4.58" transform="matrix(1, -0.012, 0.012, 1, 149.885, 129.057)" fill="#fe85b2"/>
      <rect id="Rectangle_116" data-name="Rectangle 116" width="4.392" height="4.58" transform="matrix(1, -0.012, 0.012, 1, 174.597, 128.748)" fill="#fe85b2"/>
      <rect id="Rectangle_117" data-name="Rectangle 117" width="4.392" height="4.58" transform="translate(1.933 156.652) rotate(-0.718)" fill="#fe85b2"/>
      <rect id="Rectangle_118" data-name="Rectangle 118" width="4.392" height="4.58" transform="translate(26.646 156.343) rotate(-0.718)" fill="#fe85b2"/>
      <rect id="Rectangle_119" data-name="Rectangle 119" width="4.392" height="4.58" transform="translate(51.358 156.033) rotate(-0.718)" fill="#fe85b2"/>
      <rect id="Rectangle_120" data-name="Rectangle 120" width="4.392" height="4.58" transform="translate(76.07 155.724) rotate(-0.718)" fill="#fe85b2"/>
      <rect id="Rectangle_121" data-name="Rectangle 121" width="4.392" height="4.58" transform="translate(100.783 155.414) rotate(-0.718)" fill="#fe85b2"/>
      <rect id="Rectangle_122" data-name="Rectangle 122" width="4.392" height="4.58" transform="translate(125.495 155.105) rotate(-0.721)" fill="#fe85b2"/>
      <rect id="Rectangle_123" data-name="Rectangle 123" width="4.392" height="4.58" transform="translate(150.207 154.796) rotate(-0.721)" fill="#fe85b2"/>
      <rect id="Rectangle_124" data-name="Rectangle 124" width="4.392" height="4.58" transform="matrix(1, -0.013, 0.013, 1, 174.919, 154.486)" fill="#fe85b2"/>
      <rect id="Rectangle_125" data-name="Rectangle 125" width="4.392" height="4.58" transform="translate(2.256 182.391) rotate(-0.721)" fill="#fe85b2"/>
      <rect id="Rectangle_126" data-name="Rectangle 126" width="4.392" height="4.58" transform="translate(26.968 182.081) rotate(-0.718)" fill="#fe85b2"/>
      <rect id="Rectangle_127" data-name="Rectangle 127" width="4.392" height="4.58" transform="translate(51.68 181.772) rotate(-0.718)" fill="#fe85b2"/>
      <rect id="Rectangle_128" data-name="Rectangle 128" width="4.392" height="4.58" transform="matrix(1, -0.013, 0.013, 1, 76.393, 181.462)" fill="#fe85b2"/>
      <rect id="Rectangle_129" data-name="Rectangle 129" width="4.392" height="4.58" transform="translate(101.105 181.153) rotate(-0.718)" fill="#fe85b2"/>
      <rect id="Rectangle_130" data-name="Rectangle 130" width="4.392" height="4.58" transform="translate(125.817 180.844) rotate(-0.718)" fill="#fe85b2"/>
      <rect id="Rectangle_131" data-name="Rectangle 131" width="4.392" height="4.58" transform="translate(150.529 180.534) rotate(-0.718)" fill="#fe85b2"/>
      <rect id="Rectangle_132" data-name="Rectangle 132" width="4.392" height="4.58" transform="translate(175.242 180.225) rotate(-0.718)" fill="#fe85b2"/>
    </g>
  </g>
</svg>
