<svg xmlns="http://www.w3.org/2000/svg" xmlns:xlink="http://www.w3.org/1999/xlink" width="203.296" height="204.477" viewBox="0 0 203.296 204.477">
  <defs>
    <clipPath id="clip-path">
      <ellipse id="Ellipse_27" data-name="Ellipse 27" cx="73.821" cy="75.434" rx="73.821" ry="75.434" fill="none"/>
    </clipPath>
  </defs>
  <g id="Group_17" data-name="Group 17" transform="translate(75.434) rotate(30)" opacity="0.3">
    <g id="Group_16" data-name="Group 16" clip-path="url(#clip-path)">
      <g id="Group_15" data-name="Group 15" transform="translate(0.198 -1.248)">
        <rect id="Rectangle_5" data-name="Rectangle 5" width="3.586" height="3.74" transform="translate(146.716 150.847) rotate(179.283)" fill="#0f0f0f"/>
        <rect id="Rectangle_6" data-name="Rectangle 6" width="3.586" height="3.74" transform="matrix(-1, 0.012, -0.012, -1, 126.538, 151.099)" fill="#0f0f0f"/>
        <rect id="Rectangle_7" data-name="Rectangle 7" width="3.586" height="3.74" transform="translate(106.361 151.352) rotate(179.281)" fill="#0f0f0f"/>
        <rect id="Rectangle_8" data-name="Rectangle 8" width="3.586" height="3.74" transform="translate(86.183 151.605) rotate(179.281)" fill="#0f0f0f"/>
        <rect id="Rectangle_9" data-name="Rectangle 9" width="3.586" height="3.74" transform="translate(66.006 151.857) rotate(179.283)" fill="#0f0f0f"/>
        <rect id="Rectangle_10" data-name="Rectangle 10" width="3.586" height="3.74" transform="translate(45.829 152.11) rotate(179.283)" fill="#0f0f0f"/>
        <rect id="Rectangle_11" data-name="Rectangle 11" width="3.586" height="3.74" transform="translate(25.651 152.363) rotate(179.283)" fill="#0f0f0f"/>
        <rect id="Rectangle_12" data-name="Rectangle 12" width="3.586" height="3.74" transform="translate(5.474 152.615) rotate(179.283)" fill="#0f0f0f"/>
        <rect id="Rectangle_13" data-name="Rectangle 13" width="3.586" height="3.74" transform="translate(146.453 129.832) rotate(179.283)" fill="#0f0f0f"/>
        <rect id="Rectangle_14" data-name="Rectangle 14" width="3.586" height="3.74" transform="translate(126.275 130.084) rotate(179.286)" fill="#0f0f0f"/>
        <rect id="Rectangle_15" data-name="Rectangle 15" width="3.586" height="3.74" transform="matrix(-1, 0.012, -0.012, -1, 106.098, 130.337)" fill="#0f0f0f"/>
        <rect id="Rectangle_16" data-name="Rectangle 16" width="3.586" height="3.74" transform="matrix(-1, 0.012, -0.012, -1, 85.92, 130.589)" fill="#0f0f0f"/>
        <rect id="Rectangle_17" data-name="Rectangle 17" width="3.586" height="3.74" transform="matrix(-1, 0.012, -0.012, -1, 65.743, 130.842)" fill="#0f0f0f"/>
        <rect id="Rectangle_18" data-name="Rectangle 18" width="3.586" height="3.74" transform="matrix(-1, 0.012, -0.012, -1, 45.566, 131.095)" fill="#0f0f0f"/>
        <rect id="Rectangle_19" data-name="Rectangle 19" width="3.586" height="3.74" transform="matrix(-1, 0.012, -0.012, -1, 25.388, 131.347)" fill="#0f0f0f"/>
        <rect id="Rectangle_20" data-name="Rectangle 20" width="3.586" height="3.74" transform="matrix(-1, 0.012, -0.012, -1, 5.211, 131.6)" fill="#0f0f0f"/>
        <rect id="Rectangle_21" data-name="Rectangle 21" width="3.586" height="3.74" transform="translate(146.189 108.816) rotate(179.283)" fill="#0f0f0f"/>
        <rect id="Rectangle_22" data-name="Rectangle 22" width="3.586" height="3.74" transform="matrix(-1, 0.012, -0.012, -1, 126.012, 109.069)" fill="#0f0f0f"/>
        <rect id="Rectangle_23" data-name="Rectangle 23" width="3.586" height="3.74" transform="translate(105.835 109.321) rotate(179.283)" fill="#0f0f0f"/>
        <rect id="Rectangle_24" data-name="Rectangle 24" width="3.586" height="3.74" transform="translate(85.657 109.574) rotate(179.279)" fill="#0f0f0f"/>
        <rect id="Rectangle_25" data-name="Rectangle 25" width="3.586" height="3.74" transform="translate(65.48 109.826) rotate(179.281)" fill="#0f0f0f"/>
        <rect id="Rectangle_26" data-name="Rectangle 26" width="3.586" height="3.74" transform="translate(45.303 110.079) rotate(179.281)" fill="#0f0f0f"/>
        <rect id="Rectangle_27" data-name="Rectangle 27" width="3.586" height="3.74" transform="translate(25.125 110.332) rotate(179.283)" fill="#0f0f0f"/>
        <rect id="Rectangle_28" data-name="Rectangle 28" width="3.586" height="3.74" transform="translate(4.948 110.584) rotate(179.283)" fill="#0f0f0f"/>
        <rect id="Rectangle_29" data-name="Rectangle 29" width="3.586" height="3.74" transform="translate(145.926 87.801) rotate(179.281)" fill="#0f0f0f"/>
        <rect id="Rectangle_30" data-name="Rectangle 30" width="3.586" height="3.74" transform="translate(125.749 88.054) rotate(179.283)" fill="#0f0f0f"/>
        <rect id="Rectangle_31" data-name="Rectangle 31" width="3.586" height="3.74" transform="translate(105.572 88.306) rotate(179.283)" fill="#0f0f0f"/>
        <rect id="Rectangle_32" data-name="Rectangle 32" width="3.586" height="3.74" transform="translate(85.394 88.559) rotate(179.283)" fill="#0f0f0f"/>
        <rect id="Rectangle_33" data-name="Rectangle 33" width="3.586" height="3.74" transform="translate(65.217 88.811) rotate(179.283)" fill="#0f0f0f"/>
        <rect id="Rectangle_34" data-name="Rectangle 34" width="3.586" height="3.74" transform="translate(45.039 89.064) rotate(179.283)" fill="#0f0f0f"/>
        <rect id="Rectangle_35" data-name="Rectangle 35" width="3.586" height="3.74" transform="translate(24.862 89.317) rotate(179.283)" fill="#0f0f0f"/>
        <rect id="Rectangle_36" data-name="Rectangle 36" width="3.586" height="3.74" transform="translate(4.685 89.569) rotate(179.283)" fill="#0f0f0f"/>
        <rect id="Rectangle_37" data-name="Rectangle 37" width="3.586" height="3.74" transform="matrix(-1, 0.012, -0.012, -1, 145.663, 66.786)" fill="#0f0f0f"/>
        <rect id="Rectangle_38" data-name="Rectangle 38" width="3.586" height="3.74" transform="translate(125.486 67.038) rotate(179.286)" fill="#0f0f0f"/>
        <rect id="Rectangle_39" data-name="Rectangle 39" width="3.586" height="3.74" transform="matrix(-1, 0.012, -0.012, -1, 105.308, 67.291)" fill="#0f0f0f"/>
        <rect id="Rectangle_40" data-name="Rectangle 40" width="3.586" height="3.74" transform="translate(85.131 67.543) rotate(179.281)" fill="#0f0f0f"/>
        <rect id="Rectangle_41" data-name="Rectangle 41" width="3.586" height="3.74" transform="translate(64.954 67.796) rotate(179.281)" fill="#0f0f0f"/>
        <rect id="Rectangle_42" data-name="Rectangle 42" width="3.586" height="3.74" transform="translate(44.776 68.049) rotate(179.283)" fill="#0f0f0f"/>
        <rect id="Rectangle_43" data-name="Rectangle 43" width="3.586" height="3.74" transform="translate(24.599 68.301) rotate(179.283)" fill="#0f0f0f"/>
        <rect id="Rectangle_44" data-name="Rectangle 44" width="3.586" height="3.74" transform="translate(4.422 68.554) rotate(179.283)" fill="#0f0f0f"/>
        <rect id="Rectangle_45" data-name="Rectangle 45" width="3.586" height="3.74" transform="translate(145.4 45.77) rotate(179.283)" fill="#0f0f0f"/>
        <rect id="Rectangle_46" data-name="Rectangle 46" width="3.586" height="3.74" transform="matrix(-1, 0.012, -0.012, -1, 125.223, 46.023)" fill="#0f0f0f"/>
        <rect id="Rectangle_47" data-name="Rectangle 47" width="3.586" height="3.74" transform="matrix(-1, 0.012, -0.012, -1, 105.045, 46.275)" fill="#0f0f0f"/>
        <rect id="Rectangle_48" data-name="Rectangle 48" width="3.586" height="3.74" transform="translate(84.868 46.528) rotate(179.283)" fill="#0f0f0f"/>
        <rect id="Rectangle_49" data-name="Rectangle 49" width="3.586" height="3.74" transform="matrix(-1, 0.012, -0.012, -1, 64.691, 46.781)" fill="#0f0f0f"/>
        <rect id="Rectangle_50" data-name="Rectangle 50" width="3.586" height="3.74" transform="matrix(-1, 0.012, -0.012, -1, 44.513, 47.033)" fill="#0f0f0f"/>
        <rect id="Rectangle_51" data-name="Rectangle 51" width="3.586" height="3.74" transform="matrix(-1, 0.012, -0.012, -1, 24.336, 47.286)" fill="#0f0f0f"/>
        <rect id="Rectangle_52" data-name="Rectangle 52" width="3.586" height="3.74" transform="matrix(-1, 0.012, -0.012, -1, 4.158, 47.539)" fill="#0f0f0f"/>
        <rect id="Rectangle_53" data-name="Rectangle 53" width="3.586" height="3.74" transform="translate(145.137 24.755) rotate(179.283)" fill="#0f0f0f"/>
        <rect id="Rectangle_54" data-name="Rectangle 54" width="3.586" height="3.74" transform="translate(124.96 25.007) rotate(179.283)" fill="#0f0f0f"/>
        <rect id="Rectangle_55" data-name="Rectangle 55" width="3.586" height="3.74" transform="matrix(-1, 0.012, -0.012, -1, 104.782, 25.26)" fill="#0f0f0f"/>
        <rect id="Rectangle_56" data-name="Rectangle 56" width="3.586" height="3.74" transform="translate(84.605 25.513) rotate(179.283)" fill="#0f0f0f"/>
        <rect id="Rectangle_57" data-name="Rectangle 57" width="3.586" height="3.74" transform="translate(64.428 25.765) rotate(179.281)" fill="#0f0f0f"/>
        <rect id="Rectangle_58" data-name="Rectangle 58" width="3.586" height="3.74" transform="translate(44.25 26.018) rotate(179.281)" fill="#0f0f0f"/>
        <rect id="Rectangle_59" data-name="Rectangle 59" width="3.586" height="3.74" transform="translate(24.073 26.27) rotate(179.279)" fill="#0f0f0f"/>
        <rect id="Rectangle_60" data-name="Rectangle 60" width="3.586" height="3.74" transform="translate(3.895 26.523) rotate(179.283)" fill="#0f0f0f"/>
        <rect id="Rectangle_61" data-name="Rectangle 61" width="3.586" height="3.74" transform="translate(144.874 3.74) rotate(179.279)" fill="#0f0f0f"/>
        <rect id="Rectangle_62" data-name="Rectangle 62" width="3.586" height="3.74" transform="translate(124.697 3.992) rotate(179.281)" fill="#0f0f0f"/>
        <rect id="Rectangle_63" data-name="Rectangle 63" width="3.586" height="3.74" transform="translate(104.519 4.245) rotate(179.283)" fill="#0f0f0f"/>
        <rect id="Rectangle_64" data-name="Rectangle 64" width="3.586" height="3.74" transform="translate(84.342 4.497) rotate(179.283)" fill="#0f0f0f"/>
        <rect id="Rectangle_65" data-name="Rectangle 65" width="3.586" height="3.74" transform="translate(64.164 4.75) rotate(179.281)" fill="#0f0f0f"/>
        <rect id="Rectangle_66" data-name="Rectangle 66" width="3.586" height="3.74" transform="translate(43.987 5.003) rotate(179.283)" fill="#0f0f0f"/>
        <rect id="Rectangle_67" data-name="Rectangle 67" width="3.586" height="3.74" transform="translate(23.81 5.255) rotate(179.283)" fill="#0f0f0f"/>
        <rect id="Rectangle_68" data-name="Rectangle 68" width="3.586" height="3.74" transform="translate(3.632 5.508) rotate(179.283)" fill="#0f0f0f"/>
      </g>
    </g>
  </g>
</svg>
