<svg xmlns="http://www.w3.org/2000/svg" width="310.223" height="310.593" viewBox="0 0 310.223 310.593">
  <g id="Shape_1" data-name="Shape 1" transform="translate(-500.79 173.421) rotate(-45)">
    <g id="Group_7" data-name="Group 7" transform="translate(326.215 308.725)">
      <path id="Path_1" data-name="Path 1" d="M478.118,310.607c-1.545-.608-3.091-1.206-4.652-1.762l-100.583-.121c-1.561.548-3.109,1.145-4.657,1.75Z" transform="translate(-272.609 -308.725)" fill="none" stroke="#97d9f3" stroke-miterlimit="10" stroke-width="3"/>
      <path id="Path_2" data-name="Path 2" d="M539.249,320.657c-.746-.6-1.509-1.174-2.265-1.759l-183.713-.223c-.758.585-1.523,1.154-2.271,1.753Z" transform="translate(-294.59 -296.029)" fill="none" stroke="#97d9f3" stroke-miterlimit="10" stroke-width="3"/>
      <path id="Path_3" data-name="Path 3" d="M342.444,328.635c-.492.585-1,1.161-1.486,1.755l233.906.282c-.48-.594-.99-1.17-1.482-1.759Z" transform="translate(-307.403 -283.32)" fill="none" stroke="#97d9f3" stroke-miterlimit="10" stroke-width="3"/>
      <path id="Path_4" data-name="Path 4" d="M598.554,340.675c-.321-.589-.649-1.172-.976-1.757L335.254,338.6c-.33.583-.66,1.168-.981,1.755Z" transform="translate(-315.933 -270.606)" fill="none" stroke="#97d9f3" stroke-miterlimit="10" stroke-width="3"/>
      <path id="Path_5" data-name="Path 5" d="M614.249,350.664c-.2-.587-.426-1.17-.635-1.757l-283.135-.341c-.212.585-.435,1.165-.64,1.755Z" transform="translate(-321.591 -257.888)" fill="none" stroke="#97d9f3" stroke-miterlimit="10" stroke-width="3"/>
      <path id="Path_6" data-name="Path 6" d="M623.43,360.649c-.1-.585-.184-1.172-.3-1.757l-295.594-.357c-.114.583-.193,1.17-.3,1.755Z" transform="translate(-324.908 -245.168)" fill="none" stroke="#97d9f3" stroke-miterlimit="10" stroke-width="3"/>
      <path id="Path_7" data-name="Path 7" d="M627.01,370.626c-.014-.585-.018-1.17-.039-1.755l-300.711-.366c-.023.587-.03,1.172-.045,1.757Z" transform="translate(-326.215 -232.446)" fill="none" stroke="#97d9f3" stroke-miterlimit="10" stroke-width="3"/>
      <path id="Path_8" data-name="Path 8" d="M625.371,380.6q.113-.877.214-1.755L326.6,378.479q.1.877.209,1.755Z" transform="translate(-325.721 -219.72)" fill="none" stroke="#97d9f3" stroke-miterlimit="10" stroke-width="3"/>
      <path id="Path_9" data-name="Path 9" d="M618.3,390.561c.166-.583.316-1.17.476-1.755L328.5,388.453c.159.585.3,1.174.471,1.757Z" transform="translate(-323.296 -206.993)" fill="none" stroke="#97d9f3" stroke-miterlimit="10" stroke-width="3"/>
      <path id="Path_10" data-name="Path 10" d="M605.191,400.517c.275-.585.544-1.17.813-1.757l-273.92-.33q.4.881.808,1.757Z" transform="translate(-318.726 -194.262)" fill="none" stroke="#97d9f3" stroke-miterlimit="10" stroke-width="3"/>
      <path id="Path_11" data-name="Path 11" d="M584.684,410.464q.621-.874,1.227-1.755l-248.185-.3c.405.587.81,1.174,1.224,1.757Z" transform="translate(-311.528 -181.529)" fill="none" stroke="#97d9f3" stroke-miterlimit="10" stroke-width="3"/>
      <path id="Path_12" data-name="Path 12" d="M554.175,420.4c.619-.583,1.238-1.161,1.848-1.755l-209.9-.255c.61.6,1.227,1.177,1.846,1.759Z" transform="translate(-300.811 -168.792)" fill="none" stroke="#97d9f3" stroke-miterlimit="10" stroke-width="3"/>
      <path id="Path_13" data-name="Path 13" d="M506.049,430.315c1.056-.574,2.105-1.154,3.15-1.753l-149.908-.182q1.564.9,3.148,1.759Z" transform="translate(-284.01 -156.047)" fill="none" stroke="#97d9f3" stroke-miterlimit="10" stroke-width="3"/>
    </g>
  </g>
</svg>
