<svg xmlns="http://www.w3.org/2000/svg" xmlns:xlink="http://www.w3.org/1999/xlink" width="129.972" height="129.972" viewBox="0 0 129.972 129.972">
  <defs>
    <clipPath id="clip-path">
      <circle id="Ellipse_31" data-name="Ellipse 31" cx="47.055" cy="47.055" r="47.055" transform="matrix(0.538, -0.843, 0.843, 0.538, 0, 79.309)" fill="none"/>
    </clipPath>
  </defs>
  <g id="Shape_2" data-name="Shape 2" transform="translate(-590.851 -321.573)">
    <g id="Group_39" data-name="Group 39" transform="translate(590.851 321.573)" clip-path="url(#clip-path)">
      <g id="Group_31" data-name="Group 31" transform="translate(102.322 18.526)">
        <path id="Path_55" data-name="Path 55" d="M647.62,339.193a4.165,4.165,0,1,1,4.3-4.025A4.164,4.164,0,0,1,647.62,339.193Z" transform="translate(-640.771 -330.866)" fill="#141414"/>
        <path id="Path_56" data-name="Path 56" d="M651.065,348.166a4.165,4.165,0,1,1-1.712-5.638A4.165,4.165,0,0,1,651.065,348.166Z" transform="translate(-641.138 -319.767)" fill="#141414"/>
        <path id="Path_57" data-name="Path 57" d="M650.348,369.88a4.165,4.165,0,1,1-1.71-5.636A4.163,4.163,0,0,1,650.348,369.88Z" transform="translate(-641.848 -298.192)" fill="#141414"/>
        <path id="Path_58" data-name="Path 58" d="M650.7,359.336a4.165,4.165,0,1,1-1.712-5.636A4.166,4.166,0,0,1,650.7,359.336Z" transform="translate(-641.503 -308.668)" fill="#141414"/>
        <path id="Path_59" data-name="Path 59" d="M650.017,379.937A4.165,4.165,0,1,1,648.3,374.3,4.166,4.166,0,0,1,650.017,379.937Z" transform="translate(-642.177 -288.199)" fill="#141414"/>
      </g>
      <g id="Group_32" data-name="Group 32" transform="translate(89.834 18.116)">
        <path id="Path_60" data-name="Path 60" d="M641.356,338.987a4.165,4.165,0,1,1,4.3-4.025A4.165,4.165,0,0,1,641.356,338.987Z" transform="translate(-634.507 -330.66)" fill="#141414"/>
        <path id="Path_61" data-name="Path 61" d="M644.8,347.958a4.164,4.164,0,1,1-1.711-5.636A4.163,4.163,0,0,1,644.8,347.958Z" transform="translate(-634.874 -319.562)" fill="#141414"/>
        <path id="Path_62" data-name="Path 62" d="M644.084,369.674a4.165,4.165,0,1,1-1.71-5.636A4.165,4.165,0,0,1,644.084,369.674Z" transform="translate(-635.584 -297.986)" fill="#141414"/>
        <path id="Path_63" data-name="Path 63" d="M644.431,359.131a4.165,4.165,0,1,1-1.71-5.638A4.164,4.164,0,0,1,644.431,359.131Z" transform="translate(-635.239 -308.462)" fill="#141414"/>
        <path id="Path_64" data-name="Path 64" d="M643.753,379.731a4.166,4.166,0,1,1-1.713-5.636A4.164,4.164,0,0,1,643.753,379.731Z" transform="translate(-635.913 -287.994)" fill="#141414"/>
      </g>
      <g id="Group_33" data-name="Group 33" transform="translate(77.347 17.703)">
        <path id="Path_65" data-name="Path 65" d="M635.092,338.782a4.166,4.166,0,1,1,4.3-4.027A4.165,4.165,0,0,1,635.092,338.782Z" transform="translate(-628.243 -330.453)" fill="#141414"/>
        <path id="Path_66" data-name="Path 66" d="M638.537,347.752a4.166,4.166,0,1,1-1.713-5.636A4.166,4.166,0,0,1,638.537,347.752Z" transform="translate(-628.61 -319.354)" fill="#141414"/>
        <path id="Path_67" data-name="Path 67" d="M637.82,369.467a4.164,4.164,0,1,1-1.711-5.636A4.166,4.166,0,0,1,637.82,369.467Z" transform="translate(-629.32 -297.778)" fill="#141414"/>
        <path id="Path_68" data-name="Path 68" d="M638.167,358.923a4.164,4.164,0,1,1-1.71-5.636A4.165,4.165,0,0,1,638.167,358.923Z" transform="translate(-628.975 -308.255)" fill="#141414"/>
        <path id="Path_69" data-name="Path 69" d="M637.489,379.525a4.165,4.165,0,1,1-1.712-5.636A4.165,4.165,0,0,1,637.489,379.525Z" transform="translate(-629.65 -287.786)" fill="#141414"/>
      </g>
      <g id="Group_34" data-name="Group 34" transform="translate(64.858 17.292)">
        <path id="Path_70" data-name="Path 70" d="M628.828,338.574a4.165,4.165,0,1,1,4.3-4.025A4.164,4.164,0,0,1,628.828,338.574Z" transform="translate(-621.979 -330.247)" fill="#141414"/>
        <path id="Path_71" data-name="Path 71" d="M632.271,347.545a4.164,4.164,0,1,1-1.711-5.636A4.164,4.164,0,0,1,632.271,347.545Z" transform="translate(-622.345 -319.148)" fill="#141414"/>
        <path id="Path_72" data-name="Path 72" d="M631.556,369.261a4.165,4.165,0,1,1-1.713-5.636A4.163,4.163,0,0,1,631.556,369.261Z" transform="translate(-623.056 -297.573)" fill="#141414"/>
        <path id="Path_73" data-name="Path 73" d="M631.9,358.717a4.165,4.165,0,1,1-1.71-5.636A4.163,4.163,0,0,1,631.9,358.717Z" transform="translate(-622.711 -308.049)" fill="#141414"/>
        <path id="Path_74" data-name="Path 74" d="M631.226,379.318a4.165,4.165,0,1,1-1.713-5.636A4.168,4.168,0,0,1,631.226,379.318Z" transform="translate(-623.385 -287.58)" fill="#141414"/>
      </g>
      <g id="Group_35" data-name="Group 35" transform="translate(52.371 16.881)">
        <circle id="Ellipse_30" data-name="Ellipse 30" cx="4.165" cy="4.165" r="4.165" transform="translate(2.822)" fill="#141414"/>
        <path id="Path_75" data-name="Path 75" d="M626.007,347.339a4.165,4.165,0,1,1-1.71-5.636A4.165,4.165,0,0,1,626.007,347.339Z" transform="translate(-616.081 -318.942)" fill="#141414"/>
        <path id="Path_76" data-name="Path 76" d="M625.292,369.055a4.165,4.165,0,1,1-1.712-5.636A4.165,4.165,0,0,1,625.292,369.055Z" transform="translate(-616.792 -297.367)" fill="#141414"/>
        <path id="Path_77" data-name="Path 77" d="M625.639,358.51a4.164,4.164,0,1,1-1.71-5.636A4.164,4.164,0,0,1,625.639,358.51Z" transform="translate(-616.446 -307.843)" fill="#141414"/>
        <path id="Path_78" data-name="Path 78" d="M624.962,379.112a4.166,4.166,0,1,1-1.712-5.636A4.166,4.166,0,0,1,624.962,379.112Z" transform="translate(-617.121 -287.374)" fill="#141414"/>
      </g>
      <g id="Group_36" data-name="Group 36" transform="translate(39.883 16.469)">
        <path id="Path_79" data-name="Path 79" d="M616.3,338.161a4.165,4.165,0,1,1,4.3-4.025A4.165,4.165,0,0,1,616.3,338.161Z" transform="translate(-609.451 -329.834)" fill="#141414"/>
        <path id="Path_80" data-name="Path 80" d="M619.743,347.133a4.165,4.165,0,1,1-1.71-5.636A4.165,4.165,0,0,1,619.743,347.133Z" transform="translate(-609.817 -318.735)" fill="#141414"/>
        <path id="Path_81" data-name="Path 81" d="M619.028,368.848a4.165,4.165,0,1,1-1.712-5.636A4.166,4.166,0,0,1,619.028,368.848Z" transform="translate(-610.528 -297.16)" fill="#141414"/>
        <path id="Path_82" data-name="Path 82" d="M619.375,358.3a4.165,4.165,0,1,1-1.711-5.636A4.165,4.165,0,0,1,619.375,358.3Z" transform="translate(-610.183 -307.636)" fill="#141414"/>
        <path id="Path_83" data-name="Path 83" d="M618.7,378.907a4.165,4.165,0,1,1-1.71-5.638A4.165,4.165,0,0,1,618.7,378.907Z" transform="translate(-610.857 -287.167)" fill="#141414"/>
      </g>
      <g id="Group_37" data-name="Group 37" transform="translate(27.396 16.058)">
        <path id="Path_84" data-name="Path 84" d="M610.037,337.955a4.165,4.165,0,1,1,4.3-4.025A4.167,4.167,0,0,1,610.037,337.955Z" transform="translate(-603.188 -329.628)" fill="#141414"/>
        <path id="Path_85" data-name="Path 85" d="M613.479,346.926a4.164,4.164,0,1,1-1.71-5.636A4.165,4.165,0,0,1,613.479,346.926Z" transform="translate(-603.553 -318.529)" fill="#141414"/>
        <path id="Path_86" data-name="Path 86" d="M612.764,368.642a4.165,4.165,0,1,1-1.712-5.636A4.166,4.166,0,0,1,612.764,368.642Z" transform="translate(-604.264 -296.954)" fill="#141414"/>
        <path id="Path_87" data-name="Path 87" d="M613.111,358.1a4.165,4.165,0,1,1-1.71-5.636A4.164,4.164,0,0,1,613.111,358.1Z" transform="translate(-603.919 -307.43)" fill="#141414"/>
        <path id="Path_88" data-name="Path 88" d="M612.432,378.7a4.165,4.165,0,1,1-1.711-5.636A4.165,4.165,0,0,1,612.432,378.7Z" transform="translate(-604.593 -286.962)" fill="#141414"/>
      </g>
      <g id="Group_38" data-name="Group 38" transform="translate(14.908 15.648)">
        <path id="Path_89" data-name="Path 89" d="M603.773,337.749a4.165,4.165,0,1,1,4.3-4.027A4.166,4.166,0,0,1,603.773,337.749Z" transform="translate(-596.923 -329.422)" fill="#141414"/>
        <path id="Path_90" data-name="Path 90" d="M607.215,346.72a4.165,4.165,0,1,1-1.71-5.636A4.163,4.163,0,0,1,607.215,346.72Z" transform="translate(-597.289 -318.324)" fill="#141414"/>
        <path id="Path_91" data-name="Path 91" d="M606.5,368.435a4.165,4.165,0,1,1-1.713-5.636A4.168,4.168,0,0,1,606.5,368.435Z" transform="translate(-598 -296.748)" fill="#141414"/>
        <path id="Path_92" data-name="Path 92" d="M606.847,357.891a4.165,4.165,0,1,1-1.711-5.636A4.166,4.166,0,0,1,606.847,357.891Z" transform="translate(-597.655 -307.224)" fill="#141414"/>
        <path id="Path_93" data-name="Path 93" d="M606.168,378.493a4.165,4.165,0,1,1-1.71-5.636A4.164,4.164,0,0,1,606.168,378.493Z" transform="translate(-598.329 -286.756)" fill="#141414"/>
      </g>
    </g>
  </g>
</svg>
