<svg width="86" height="36" viewBox="0 0 86 36" fill="none" xmlns="http://www.w3.org/2000/svg">
<path d="M22.2489 4.44979C14.8788 4.44979 8.89957 10.4263 8.89957 17.7978C8.89957 22.7126 12.8844 26.6974 17.7992 26.6974C22.7139 26.6974 26.6974 22.7126 26.6987 17.7978C26.6987 14.5241 24.0435 11.8658 20.7658 11.8658C17.4894 11.8658 14.8325 14.5241 14.8325 17.7987C14.8325 19.4385 16.1607 20.7654 17.7992 20.7654C19.4376 20.7654 20.7658 19.4385 20.7658 17.7987H17.7992C17.7992 16.159 19.1274 14.832 20.7658 14.832C22.4042 14.832 23.7321 16.159 23.7321 17.7987C23.7321 21.0764 21.0755 23.7316 17.7992 23.7316C14.5228 23.7316 11.8662 21.0769 11.8662 17.7992C11.8662 12.8857 15.851 8.89958 20.7658 8.89958C25.6819 8.89958 29.6636 12.8844 29.6654 17.7978V17.796V17.7992V17.7978C29.6636 24.351 24.3524 29.6636 17.7991 29.6636C11.2459 29.6636 5.93289 24.351 5.93289 17.7978V17.7992V17.796V17.7978C5.93289 8.78789 13.2394 1.48311 22.2489 1.48311C23.4166 1.48311 24.5535 1.61038 25.6512 1.84399C23.2799 0.675033 20.6208 0 17.7991 0C7.96956 0 -7.62939e-06 7.96957 -7.62939e-06 17.7992C-7.62939e-06 27.6287 7.96956 35.5983 17.7991 35.5983C27.6287 35.5983 35.5983 27.6287 35.5983 17.7992C35.5983 17.3386 35.5636 16.8865 35.5289 16.4348C34.8454 9.70365 29.1612 4.44979 22.2489 4.44979H22.2489Z" fill="url(#paint0_linear_57:12)"/>
<path d="M41.5044 24.3236C41.5645 23.5869 41.9028 22.9705 42.5193 22.4744C44.0829 23.4967 45.5939 24.0079 47.0523 24.0079C47.9393 24.0079 48.6422 23.8125 49.1609 23.4216C49.6796 23.0306 49.9389 22.5195 49.9389 21.888C49.9389 20.8506 49.2549 20.0387 47.8867 19.4524L45.2255 18.3022C43.1658 17.4151 42.1359 16.1146 42.1359 14.4007C42.1359 13.7842 42.2637 13.2091 42.5193 12.6754C42.7748 12.1417 43.1282 11.6718 43.5792 11.2659C44.0303 10.8599 44.5753 10.5517 45.2142 10.3412C45.8532 10.1308 46.5561 10.0255 47.3229 10.0255C48.9015 10.0255 50.4652 10.4164 52.0138 11.1982C51.9987 11.9199 51.7055 12.5438 51.1342 13.0701C49.6909 12.3634 48.4054 12.0101 47.2778 12.0101C46.4659 12.0101 45.8119 12.2093 45.3157 12.6077C44.8196 13.0062 44.5715 13.476 44.5715 14.0173C44.5715 14.5736 44.7256 15.0058 45.0338 15.314C45.3421 15.6222 45.8119 15.9041 46.4434 16.1597L49.0594 17.2873C50.187 17.7685 51.0327 18.3511 51.5965 19.0351C52.1604 19.7192 52.4423 20.5349 52.4423 21.4821C52.4423 22.8352 51.9724 23.929 51.0327 24.7634C50.0931 25.5979 48.6685 26.0151 46.7591 26.0151C44.8497 26.0151 43.0981 25.4513 41.5044 24.3236V24.3236ZM56.885 24.6394L54.0435 10.454C54.4795 10.2586 54.908 10.1608 55.3289 10.1608C55.7499 10.1608 56.0581 10.2548 56.2536 10.4427C56.449 10.6307 56.5843 10.9652 56.6595 11.4463L58.0803 19.1141C58.4111 21.0085 58.6516 22.4593 58.802 23.4667C58.817 23.6471 58.8847 23.7373 59.005 23.7373L61.4632 10.6344C61.9593 10.5593 62.493 10.5217 63.0644 10.5217C63.6357 10.5217 64.1318 10.5593 64.5528 10.6344L66.808 23.4667C66.8381 23.6471 66.9058 23.7373 67.011 23.7373C67.1613 22.6848 67.432 21.1363 67.8229 19.0915L69.5594 10.3187C69.8601 10.2586 70.2209 10.2285 70.6419 10.2285C71.0629 10.2285 71.4463 10.2736 71.7921 10.3638L71.9048 10.5217L68.6799 25.6993C68.0935 25.7895 67.4846 25.8346 66.8531 25.8346C66.2217 25.8346 65.7857 25.7557 65.5451 25.5978C65.3046 25.44 65.1392 25.128 65.049 24.6619L63.9665 18.6179C63.5906 16.4078 63.2899 14.551 63.0644 13.0475H62.9065C62.6058 14.9419 62.275 16.7987 61.9142 18.6179L60.5385 25.7219C59.892 25.7971 59.2756 25.8347 58.6892 25.8347C58.1029 25.8347 57.6781 25.7557 57.415 25.5979C57.1519 25.44 56.9753 25.1205 56.8851 24.6394L56.885 24.6394ZM83.6095 24.6845C83.3839 24.8649 83.1171 25.0265 82.8089 25.1694C82.5006 25.3122 82.1661 25.4325 81.8053 25.5302C81.4444 25.6279 81.0798 25.7031 80.7115 25.7557C80.3431 25.8083 79.9936 25.8346 79.6628 25.8346C79.317 25.8346 78.7382 25.8271 77.9263 25.8121C77.1144 25.7971 76.0469 25.7745 74.7239 25.7444L74.5886 25.5866V10.454L74.7239 10.2961C76.0319 10.251 77.6857 10.2285 79.6854 10.2285C80.9032 10.2285 81.918 10.4315 82.7299 10.8374C83.5418 11.2433 84.1921 11.7996 84.6807 12.5063C85.1693 13.2129 85.5114 14.0436 85.7068 14.9983C85.9023 15.953 86 16.9716 86 18.0541C86 19.5576 85.8384 20.8468 85.5151 21.9218C85.1919 22.9968 84.5566 23.9177 83.6095 24.6845V24.6845ZM79.6854 12.168H76.9791V23.8952H79.6854C82.2413 23.8952 83.5192 21.9406 83.5192 18.0316C83.5192 15.9868 83.1998 14.4984 82.5608 13.5662C81.9218 12.6341 80.9633 12.168 79.6854 12.168V12.168Z" fill="url(#paint1_linear_57:12)"/>
<defs>
<linearGradient id="paint0_linear_57:12" x1="30.2586" y1="5.33975" x2="5.33974" y2="30.2586" gradientUnits="userSpaceOnUse">
<stop stop-color="#FF8FE2"/>
<stop offset="1" stop-color="#6362D7"/>
</linearGradient>
<linearGradient id="paint1_linear_57:12" x1="41.5044" y1="18.0203" x2="86" y2="18.0203" gradientUnits="userSpaceOnUse">
<stop stop-color="#FF8FE2"/>
<stop offset="1" stop-color="#6362D7"/>
</linearGradient>
</defs>
</svg>
