<svg width="134" height="56" viewBox="0 0 134 56" fill="none" xmlns="http://www.w3.org/2000/svg">
<path d="M34.667 6.93339C23.1832 6.93339 13.8668 16.2456 13.8668 27.7315C13.8668 35.3894 20.0756 41.5983 27.7336 41.5983C35.3915 41.5983 41.5983 35.3894 41.6003 27.7315C41.6003 22.6306 37.4632 18.4886 32.3561 18.4886C27.251 18.4886 23.1111 22.6306 23.1111 27.7329C23.1111 30.2878 25.1807 32.3554 27.7336 32.3554C30.2864 32.3554 32.3561 30.2878 32.3561 27.7329H27.7336C27.7336 25.1779 29.8032 23.1104 32.3561 23.1104C34.9089 23.1104 36.9779 25.1779 36.9779 27.7329C36.9779 32.84 32.8386 36.9772 27.7336 36.9772C22.6285 36.9772 18.4893 32.8407 18.4893 27.7336C18.4893 20.0777 24.6981 13.8668 32.3561 13.8668C40.0161 13.8668 46.2201 20.0756 46.2228 27.7315V27.7287V27.7336V27.7315C46.2201 37.9423 37.9444 46.2201 27.7336 46.2201C17.5227 46.2201 9.24428 37.9423 9.24428 27.7315V27.7336V27.7287V27.7315C9.24428 13.6928 20.6289 2.3109 34.6669 2.3109C36.4863 2.3109 38.2577 2.50919 39.9682 2.87319C36.2734 1.05179 32.13 0 27.7336 0C12.4177 0 -7.62939e-06 12.4177 -7.62939e-06 27.7336C-7.62939e-06 43.0494 12.4177 55.4671 27.7336 55.4671C43.0494 55.4671 55.4671 43.0494 55.4671 27.7336C55.4671 27.016 55.413 26.3115 55.359 25.6078C54.294 15.1196 45.4373 6.93339 34.6669 6.93339H34.667Z" fill="url(#paint0_linear_57:15)"/>
<path d="M64.6697 37.8996C64.7634 36.7517 65.2905 35.7912 66.2509 35.0181C68.6873 36.6111 71.0416 37.4076 73.314 37.4076C74.6961 37.4076 75.7913 37.1031 76.5995 36.494C77.4078 35.8849 77.8119 35.0884 77.8119 34.1045C77.8119 32.4881 76.746 31.2231 74.6142 30.3094L70.4677 28.5173C67.2583 27.1352 65.6536 25.1088 65.6536 22.4382C65.6536 21.4777 65.8527 20.5816 66.2509 19.75C66.6492 18.9184 67.1997 18.1863 67.9025 17.5538C68.6053 16.9213 69.4545 16.441 70.4501 16.113C71.4457 15.7851 72.5409 15.6211 73.7357 15.6211C76.1954 15.6211 78.6318 16.2302 81.0447 17.4483C81.0213 18.5728 80.5645 19.545 79.6743 20.3649C77.4253 19.2639 75.4224 18.7134 73.6654 18.7134C72.4004 18.7134 71.3813 19.0238 70.6082 19.6446C69.8352 20.2654 69.4486 20.9975 69.4486 21.8408C69.4486 22.7076 69.6888 23.3811 70.169 23.8613C70.6493 24.3416 71.3813 24.7808 72.3652 25.1791L76.4414 26.936C78.1984 27.6857 79.5161 28.5935 80.3946 29.6594C81.2731 30.7253 81.7124 31.9961 81.7124 33.472C81.7124 35.5804 80.9803 37.2846 79.5161 38.5848C78.052 39.885 75.8323 40.5351 72.8572 40.5351C69.882 40.5351 67.1529 39.6566 64.6697 37.8996V37.8996ZM88.6348 38.3915L84.2073 16.2888C84.8866 15.9842 85.5543 15.8319 86.2102 15.8319C86.8662 15.8319 87.3464 15.9784 87.6509 16.2712C87.9555 16.564 88.1663 17.0853 88.2834 17.8349L90.4972 29.7823C91.0126 32.7341 91.3874 34.9947 91.6217 36.5643C91.6451 36.8454 91.7506 36.9859 91.938 36.9859L95.7682 16.5699C96.5412 16.4527 97.3729 16.3942 98.2631 16.3942C99.1533 16.3942 99.9264 16.4527 100.582 16.5699L104.096 36.5643C104.143 36.8454 104.249 36.9859 104.413 36.9859C104.647 35.3461 105.068 32.9332 105.678 29.7472L108.383 16.0779C108.852 15.9842 109.414 15.9374 110.07 15.9374C110.726 15.9374 111.323 16.0076 111.862 16.1482L112.038 16.3942L107.013 40.0431C106.099 40.1837 105.15 40.2539 104.167 40.2539C103.183 40.2539 102.503 40.1309 102.128 39.885C101.754 39.639 101.496 39.1529 101.355 38.4267L99.6687 29.0093C99.083 25.5656 98.6145 22.6724 98.2631 20.3298H98.0171C97.5486 23.2815 97.0332 26.1747 96.471 29.0093L94.3275 40.0782C93.3201 40.1954 92.3596 40.2539 91.446 40.2539C90.5324 40.2539 89.8706 40.1309 89.4606 39.885C89.0507 39.639 88.7754 39.1412 88.6349 38.3915L88.6348 38.3915ZM130.275 38.4618C129.924 38.7429 129.508 38.9948 129.028 39.2173C128.548 39.4399 128.026 39.6273 127.464 39.7795C126.902 39.9318 126.334 40.0489 125.76 40.1309C125.186 40.2129 124.641 40.2539 124.126 40.2539C123.587 40.2539 122.685 40.2422 121.42 40.2188C120.155 40.1954 118.492 40.1602 116.43 40.1134L116.219 39.8674V16.2888L116.43 16.0428C118.468 15.9725 121.045 15.9374 124.161 15.9374C126.058 15.9374 127.64 16.2536 128.905 16.8861C130.17 17.5186 131.183 18.3854 131.944 19.4865C132.706 20.5875 133.239 21.8818 133.543 23.3694C133.848 24.857 134 26.4441 134 28.1308C134 30.4734 133.748 32.4822 133.245 34.1572C132.741 35.8322 131.751 37.2671 130.275 38.4618V38.4618ZM124.161 18.9594H119.944V37.2319H124.161C128.143 37.2319 130.135 34.1865 130.135 28.0956C130.135 24.9097 129.637 22.5904 128.641 21.138C127.646 19.6856 126.152 18.9594 124.161 18.9594V18.9594Z" fill="url(#paint1_linear_57:15)"/>
<defs>
<linearGradient id="paint0_linear_57:15" x1="47.147" y1="8.32007" x2="8.32006" y2="47.1471" gradientUnits="userSpaceOnUse">
<stop stop-color="#FF8FE2"/>
<stop offset="1" stop-color="#6362D7"/>
</linearGradient>
<linearGradient id="paint1_linear_57:15" x1="64.6697" y1="28.0781" x2="134" y2="28.0781" gradientUnits="userSpaceOnUse">
<stop stop-color="#FF8FE2"/>
<stop offset="1" stop-color="#6362D7"/>
</linearGradient>
</defs>
</svg>
