<svg id="_020-settings" data-name="020-settings" xmlns="http://www.w3.org/2000/svg" width="72.076" height="72.076" viewBox="0 0 72.076 72.076">
  <g id="Group_2940" data-name="Group 2940">
    <g id="Group_2939" data-name="Group 2939">
      <path id="Path_9982" data-name="Path 9982" d="M67.571,27.028H61.523a26.783,26.783,0,0,0-1.1-2.635l4.282-4.281a4.5,4.5,0,0,0,0-6.371l0,0-6.37-6.37a4.5,4.5,0,0,0-6.371,0l0,0-4.281,4.282a26.783,26.783,0,0,0-2.635-1.1V4.5a4.5,4.5,0,0,0-4.5-4.5H31.533a4.5,4.5,0,0,0-4.5,4.5v6.048a26.782,26.782,0,0,0-2.635,1.1L20.112,7.37a4.5,4.5,0,0,0-6.371,0l0,0-6.37,6.37a4.5,4.5,0,0,0,0,6.371l0,0,4.282,4.281a26.782,26.782,0,0,0-1.1,2.635H4.5a4.5,4.5,0,0,0-4.5,4.5v9.009a4.5,4.5,0,0,0,4.5,4.5h6.048a26.783,26.783,0,0,0,1.1,2.635L7.37,51.964a4.5,4.5,0,0,0,0,6.371l0,0,6.37,6.37a4.616,4.616,0,0,0,6.373,0,1.5,1.5,0,0,0-2.125-2.123,1.5,1.5,0,0,1-2.124,0h0l-6.37-6.37a1.5,1.5,0,0,1,0-2.124h0l5.051-5.051a1.5,1.5,0,0,0,.264-1.766A23.934,23.934,0,0,1,13.073,43.1a1.5,1.5,0,0,0-1.435-1.06H4.5a1.5,1.5,0,0,1-1.5-1.5V31.533a1.5,1.5,0,0,1,1.5-1.5h7.133a1.5,1.5,0,0,0,1.435-1.06A23.923,23.923,0,0,1,14.809,24.8a1.5,1.5,0,0,0-.264-1.766L9.493,17.987a1.5,1.5,0,0,1,0-2.124h0l6.37-6.37a1.5,1.5,0,0,1,2.124,0h0l5.051,5.051a1.5,1.5,0,0,0,1.766.264,23.934,23.934,0,0,1,4.167-1.736,1.5,1.5,0,0,0,1.06-1.435V4.5a1.5,1.5,0,0,1,1.5-1.5h9.009a1.5,1.5,0,0,1,1.5,1.5v7.133a1.5,1.5,0,0,0,1.06,1.435,23.923,23.923,0,0,1,4.167,1.736,1.5,1.5,0,0,0,1.766-.264l5.051-5.051a1.5,1.5,0,0,1,2.124,0h0l6.37,6.37a1.5,1.5,0,0,1,0,2.124h0l-5.051,5.051a1.5,1.5,0,0,0-.264,1.766A23.934,23.934,0,0,1,59,28.971a1.5,1.5,0,0,0,1.435,1.06h7.132a1.5,1.5,0,0,1,1.5,1.5v9.009a1.5,1.5,0,0,1-1.5,1.5H60.438A1.5,1.5,0,0,0,59,43.1a23.924,23.924,0,0,1-1.736,4.167,1.5,1.5,0,0,0,.264,1.766l5.051,5.051a1.5,1.5,0,0,1,0,2.124h0l-6.37,6.37a1.5,1.5,0,0,1-2.124,0h0a1.5,1.5,0,0,0-2.125,2.123,4.5,4.5,0,0,0,6.371,0l0,0,6.37-6.37a4.5,4.5,0,0,0,0-6.371l0,0-4.282-4.281a26.783,26.783,0,0,0,1.1-2.635h6.048a4.5,4.5,0,0,0,4.5-4.5V31.533A4.5,4.5,0,0,0,67.571,27.028Z"/>
    </g>
  </g>
  <g id="Group_2942" data-name="Group 2942" transform="translate(18.018 18.004)">
    <g id="Group_2941" data-name="Group 2941">
      <path id="Path_9983" data-name="Path 9983" d="M145.753,169.952a1.372,1.372,0,0,1,.275,0h0a1.5,1.5,0,0,0,1.487-1.5v-4.581a18.019,18.019,0,1,0-3,0V167.2a4.228,4.228,0,0,0-3,4.251v9.009a1.5,1.5,0,0,0,1.5,1.5h6.006a1.5,1.5,0,0,0,1.5-1.5v-7.508a1.5,1.5,0,0,0-3,0v6.006h-3v-7.508A1.378,1.378,0,0,1,145.753,169.952ZM131,145.928a15.016,15.016,0,1,1,15.016,15.016A15.016,15.016,0,0,1,131,145.928Z" transform="translate(-127.994 -127.895)"/>
    </g>
  </g>
  <g id="Group_2944" data-name="Group 2944" transform="translate(25.527 30.032)">
    <g id="Group_2943" data-name="Group 2943">
      <path id="Path_9984" data-name="Path 9984" d="M184.96,219.341,188.4,215.9a1.5,1.5,0,1,0-2.123-2.123l-4.5,4.5a1.5,1.5,0,0,0,0,2.123l4.5,4.5a1.5,1.5,0,0,0,2.123-2.123Z" transform="translate(-181.336 -213.335)"/>
    </g>
  </g>
  <g id="Group_2946" data-name="Group 2946" transform="translate(39.041 30.05)">
    <g id="Group_2945" data-name="Group 2945">
      <path id="Path_9985" data-name="Path 9985" d="M284.4,218.391l-4.5-4.5a1.5,1.5,0,0,0-2.123,2.123l3.443,3.443-3.443,3.443a1.5,1.5,0,0,0,2.123,2.123l4.5-4.5A1.5,1.5,0,0,0,284.4,218.391Z" transform="translate(-277.335 -213.465)"/>
    </g>
  </g>
</svg>
