<svg xmlns="http://www.w3.org/2000/svg" xmlns:xlink="http://www.w3.org/1999/xlink" width="72.076" height="72.076" viewBox="0 0 72.076 72.076">
  <defs>
    <linearGradient id="linear-gradient" x1="0.513" y1="-0.069" x2="0.5" y2="1" gradientUnits="objectBoundingBox">
      <stop offset="0" stop-color="#6362d7"/>
      <stop offset="0.111" stop-color="#965da7"/>
      <stop offset="1" stop-color="#925daa"/>
      <stop offset="1" stop-color="#595980"/>
      <stop offset="1" stop-color="#545454"/>
    </linearGradient>
    <linearGradient id="linear-gradient-2" x1="0.5" x2="0.5" y2="1" gradientUnits="objectBoundingBox">
      <stop offset="0" stop-color="#6362d7"/>
      <stop offset="1" stop-color="#545454"/>
    </linearGradient>
  </defs>
  <g id="_043-coding" data-name="043-coding" style="isolation: isolate">
    <g id="Group_3260" data-name="Group 3260">
      <g id="Group_3259" data-name="Group 3259">
        <path id="Path_10142" data-name="Path 10142" d="M67.571,27.028H61.523a26.934,26.934,0,0,0-1.1-2.635l4.282-4.281a4.5,4.5,0,0,0,0-6.371h0L58.336,7.37a4.512,4.512,0,0,0-6.373,0l-4.281,4.282a27.019,27.019,0,0,0-2.635-1.1V4.5a4.5,4.5,0,0,0-4.5-4.5H31.533a4.5,4.5,0,0,0-4.5,4.5v6.048a27.018,27.018,0,0,0-2.635,1.1L20.112,7.37a4.512,4.512,0,0,0-6.373,0l-6.37,6.37a4.5,4.5,0,0,0,0,6.371l0,0,4.282,4.281a26.934,26.934,0,0,0-1.1,2.635H4.5a4.5,4.5,0,0,0-4.5,4.5v9.009a4.5,4.5,0,0,0,4.5,4.5h6.048a26.935,26.935,0,0,0,1.1,2.635L7.37,51.964a4.5,4.5,0,0,0,0,6.371h0l6.37,6.371a4.5,4.5,0,0,0,6.371,0l0,0,4.281-4.282a27.019,27.019,0,0,0,2.635,1.1v6.048a4.5,4.5,0,0,0,4.5,4.5h9.009a4.5,4.5,0,0,0,4.5-4.5V61.523a27.017,27.017,0,0,0,2.635-1.1l4.281,4.282a4.5,4.5,0,0,0,6.371,0l0,0,6.37-6.37a4.5,4.5,0,0,0,0-6.371l0,0-4.282-4.281a26.935,26.935,0,0,0,1.1-2.635h6.048a4.5,4.5,0,0,0,4.5-4.5V31.533A4.5,4.5,0,0,0,67.571,27.028Zm1.5,13.514a1.5,1.5,0,0,1-1.5,1.5H60.438A1.5,1.5,0,0,0,59,43.1a23.991,23.991,0,0,1-1.736,4.168,1.5,1.5,0,0,0,.264,1.766l5.051,5.05a1.5,1.5,0,0,1,0,2.123l-6.37,6.371a1.5,1.5,0,0,1-2.124,0h0l-5.051-5.051a1.5,1.5,0,0,0-1.766-.264A23.849,23.849,0,0,1,43.1,59a1.5,1.5,0,0,0-1.06,1.435v7.132a1.5,1.5,0,0,1-1.5,1.5H31.533a1.5,1.5,0,0,1-1.5-1.5V60.438A1.5,1.5,0,0,0,28.971,59,23.849,23.849,0,0,1,24.8,57.267a1.5,1.5,0,0,0-1.766.264l-5.051,5.051a1.5,1.5,0,0,1-2.124,0h0l-6.37-6.371a1.5,1.5,0,0,1,0-2.123l5.051-5.05a1.5,1.5,0,0,0,.264-1.766A23.991,23.991,0,0,1,13.072,43.1a1.5,1.5,0,0,0-1.435-1.06H4.5a1.5,1.5,0,0,1-1.5-1.5V31.533a1.5,1.5,0,0,1,1.5-1.5h7.133a1.5,1.5,0,0,0,1.435-1.06A23.991,23.991,0,0,1,14.809,24.8a1.5,1.5,0,0,0-.264-1.766l-5.051-5.05a1.5,1.5,0,0,1,0-2.123l6.37-6.371a1.5,1.5,0,0,1,2.124,0h0l5.051,5.051a1.5,1.5,0,0,0,1.766.264,23.849,23.849,0,0,1,4.167-1.736,1.5,1.5,0,0,0,1.06-1.435V4.5a1.5,1.5,0,0,1,1.5-1.5h9.009a1.5,1.5,0,0,1,1.5,1.5v7.133a1.5,1.5,0,0,0,1.06,1.435,23.849,23.849,0,0,1,4.167,1.736,1.5,1.5,0,0,0,1.766-.264l5.051-5.051a1.5,1.5,0,0,1,2.124,0h0l6.37,6.371a1.5,1.5,0,0,1,0,2.123l-5.051,5.05a1.5,1.5,0,0,0-.264,1.766A23.992,23.992,0,0,1,59,28.972a1.5,1.5,0,0,0,1.435,1.06h7.132a1.5,1.5,0,0,1,1.5,1.5Z" fill="url(#linear-gradient)"/>
      </g>
    </g>
    <g id="Group_3262" data-name="Group 3262" transform="translate(16.518 25.527)">
      <g id="Group_3261" data-name="Group 3261">
        <path id="Path_10143" data-name="Path 10143" d="M120.96,191.846l7.948-7.948a1.5,1.5,0,0,0-2.123-2.123l-9.009,9.009a1.5,1.5,0,0,0,0,2.123l9.009,9.009a1.5,1.5,0,0,0,2.123-2.123Z" transform="translate(-117.336 -181.335)" fill="url(#linear-gradient-2)"/>
      </g>
    </g>
    <g id="Group_3264" data-name="Group 3264" transform="translate(43.527 25.545)">
      <g id="Group_3263" data-name="Group 3263">
        <path id="Path_10144" data-name="Path 10144" d="M320.793,190.9l-9.009-9.009a1.5,1.5,0,0,0-2.123,2.123l7.948,7.948-7.948,7.948a1.5,1.5,0,1,0,2.086,2.16l.037-.037,9.009-9.009A1.5,1.5,0,0,0,320.793,190.9Z" transform="translate(-309.202 -181.465)" fill="url(#linear-gradient-2)"/>
      </g>
    </g>
    <g id="Group_3266" data-name="Group 3266" transform="translate(31.532 24.026)">
      <g id="Group_3265" data-name="Group 3265">
        <path id="Path_10145" data-name="Path 10145" d="M231.914,170.728a1.5,1.5,0,0,0-1.856,1.03l-6.006,21.022a1.5,1.5,0,0,0,1.032,1.856h0a1.444,1.444,0,0,0,.411.059,1.5,1.5,0,0,0,1.443-1.089l6.006-21.022A1.5,1.5,0,0,0,231.914,170.728Z" transform="translate(-223.994 -170.67)" fill="url(#linear-gradient-2)"/>
      </g>
    </g>
  </g>
</svg>
