<svg xmlns="http://www.w3.org/2000/svg" width="72.081" height="72.081" viewBox="0 0 72.081 72.081">
  <path id="Path_9916" data-name="Path 9916" d="M70.574,9.015a1.5,1.5,0,0,0,1.5-1.5A7.239,7.239,0,0,0,65.116.005q-.274-.01-.548,0H7.508A7.517,7.517,0,0,0,0,7.513v57.06a7.517,7.517,0,0,0,7.508,7.508h57.06a7.517,7.517,0,0,0,7.508-7.508V13.52a1.5,1.5,0,0,0-1.5-1.5H9.009a1.5,1.5,0,0,0,0,3H69.072V64.573a4.5,4.5,0,0,1-4.5,4.5H7.508a4.5,4.5,0,0,1-4.5-4.5V7.513a4.5,4.5,0,0,1,4.5-4.5h57.06a4.284,4.284,0,0,1,4.5,4.5A1.5,1.5,0,0,0,70.574,9.015Z" transform="translate(0 0)"/>
</svg>
