<svg xmlns="http://www.w3.org/2000/svg" xmlns:xlink="http://www.w3.org/1999/xlink" width="72.081" height="72.081" viewBox="0 0 72.081 72.081">
  <defs>
    <linearGradient id="linear-gradient" x1="0.5" x2="0.5" y2="1" gradientUnits="objectBoundingBox">
      <stop offset="0" stop-color="#6362d7"/>
      <stop offset="1" stop-color="#66316c"/>
    </linearGradient>
  </defs>
  <g id="_015-browser-15" data-name="015-browser-15" style="isolation: isolate">
    <g id="Group_2872" data-name="Group 2872" transform="translate(0 0)">
      <g id="Group_2871" data-name="Group 2871">
        <path id="Path_9948" data-name="Path 9948" d="M70.574,9.015a1.5,1.5,0,0,0,1.5-1.5A7.239,7.239,0,0,0,65.116.005q-.274-.01-.548,0H7.508A7.517,7.517,0,0,0,0,7.513v57.06a7.517,7.517,0,0,0,7.508,7.508h57.06a7.517,7.517,0,0,0,7.508-7.508V13.52a1.5,1.5,0,0,0-1.5-1.5H9.009a1.5,1.5,0,0,0,0,3H69.072V64.573a4.5,4.5,0,0,1-4.5,4.5H49.552v-1.5a3,3,0,0,0-3-3v-2.4c3.018-3.4,5.778-10.245,5.9-10.549a1.5,1.5,0,0,0,.107-.563V43.551a4.5,4.5,0,0,0-4.5-4.5,4.45,4.45,0,0,0-1.5.276v-.276a4.5,4.5,0,0,0-4.5-4.5,4.451,4.451,0,0,0-1.5.276V33.04a4.5,4.5,0,0,0-4.5-4.5,4.451,4.451,0,0,0-1.5.276V27.034a4.5,4.5,0,1,0-9.009,0V33.04a1.5,1.5,0,0,0,3,0V27.034a1.5,1.5,0,0,1,3,0V39.047a1.5,1.5,0,1,0,3,0V33.04a1.5,1.5,0,0,1,3,0V45.053a1.5,1.5,0,0,0,3,0V39.046a1.5,1.5,0,0,1,3,0V49.558a1.5,1.5,0,1,0,3,0V43.551a1.5,1.5,0,1,1,3,0v7.208c-.551,1.323-3.117,7.3-5.566,9.745a1.5,1.5,0,0,0-.44,1.066v3H30.032v-3a1.5,1.5,0,0,0-.83-1.351,17.568,17.568,0,0,1-6.678-5.081V40.548a1.5,1.5,0,0,1,3,0v6.006a1.5,1.5,0,1,0,3,0V40.548a4.5,4.5,0,0,0-9.009,0V55.564a1.5,1.5,0,0,0,.158.671c.17.338,1.752,3.257,7.35,6.248v2.09h-1.5a3,3,0,0,0-3,3v1.5H7.508a4.5,4.5,0,0,1-4.5-4.5V7.513a4.5,4.5,0,0,1,4.5-4.5h57.06a4.284,4.284,0,0,1,4.5,4.5A1.5,1.5,0,0,0,70.574,9.015ZM25.527,67.576H46.549v1.5H25.527Z" transform="translate(0 0)" fill="url(#linear-gradient)"/>
      </g>
    </g>
    <g id="Group_2874" data-name="Group 2874" transform="translate(7.508 6.012)">
      <g id="Group_2873" data-name="Group 2873">
        <path id="Path_9949" data-name="Path 9949" d="M57.838,42.7h-3a1.5,1.5,0,0,0,0,3h3a1.5,1.5,0,1,0,0-3Z" transform="translate(-53.333 -42.704)" fill="url(#linear-gradient)"/>
      </g>
    </g>
    <g id="Group_2876" data-name="Group 2876" transform="translate(16.517 6.012)">
      <g id="Group_2875" data-name="Group 2875">
        <path id="Path_9950" data-name="Path 9950" d="M121.838,42.7h-3a1.5,1.5,0,0,0,0,3h3a1.5,1.5,0,0,0,0-3Z" transform="translate(-117.333 -42.704)" fill="url(#linear-gradient)"/>
      </g>
    </g>
    <g id="Group_2878" data-name="Group 2878" transform="translate(60.063 6.012)">
      <g id="Group_2877" data-name="Group 2877">
        <path id="Path_9951" data-name="Path 9951" d="M431.172,42.7h-3a1.5,1.5,0,1,0,0,3h3a1.5,1.5,0,1,0,0-3Z" transform="translate(-426.667 -42.704)" fill="url(#linear-gradient)"/>
      </g>
    </g>
    <g id="Group_2880" data-name="Group 2880" transform="translate(7.508 19.526)">
      <g id="Group_2879" data-name="Group 2879">
        <path id="Path_9952" data-name="Path 9952" d="M65.346,143.21H58.46l1.942-1.942a1.5,1.5,0,1,0-2.123-2.123l-4.5,4.5a1.506,1.506,0,0,0,0,2.126l4.5,4.5a1.5,1.5,0,0,0,2.123-2.123l-1.942-1.944h6.886a1.5,1.5,0,1,0,0-3Z" transform="translate(-53.334 -138.706)" fill="url(#linear-gradient)"/>
      </g>
    </g>
    <g id="Group_2882" data-name="Group 2882" transform="translate(42.044 19.541)">
      <g id="Group_2881" data-name="Group 2881">
        <path id="Path_9953" data-name="Path 9953" d="M321.076,144.229a1.484,1.484,0,0,0-.326-.489l-4.5-4.5a1.5,1.5,0,0,0-2.123,2.123l1.942,1.944h-15.9a1.5,1.5,0,0,0-1.5,1.5h0a1.5,1.5,0,0,0,1.5,1.5h15.9l-1.942,1.942a1.5,1.5,0,1,0,2.086,2.16l.037-.037,4.5-4.5a1.506,1.506,0,0,0,.326-1.637Z" transform="translate(-298.666 -138.814)" fill="url(#linear-gradient)"/>
      </g>
    </g>
  </g>
</svg>
