<svg xmlns="http://www.w3.org/2000/svg" xmlns:xlink="http://www.w3.org/1999/xlink" width="76.508" height="76.508" viewBox="0 0 76.508 76.508">
  <defs>
    <clipPath id="clip-path">
      <ellipse id="Ellipse_29" data-name="Ellipse 29" cx="28.054" cy="28.054" rx="28.054" ry="28.054" transform="matrix(1, -0.007, 0.007, 1, -1.366, 0.003)" fill="none"/>
    </clipPath>
  </defs>
  <g id="Group_2554" data-name="Group 2554" transform="translate(0.681 47.589) rotate(-60)">
    <g id="Group_29" data-name="Group 29" transform="translate(0 0)" clip-path="url(#clip-path)">
      <g id="Group_21" data-name="Group 21" transform="translate(50.497 0.539)">
        <path id="Path_15" data-name="Path 15" d="M219.226,66a2.483,2.483,0,1,1,2.563-2.4A2.483,2.483,0,0,1,219.226,66Z" transform="translate(-215.143 -61.034)" fill="#141414"/>
        <path id="Path_16" data-name="Path 16" d="M220.823,85.155a2.483,2.483,0,1,1-1.02-3.36A2.483,2.483,0,0,1,220.823,85.155Z" transform="translate(-214.906 -68.225)" fill="#141414"/>
        <path id="Path_17" data-name="Path 17" d="M219.512,124.946a2.483,2.483,0,1,1-1.02-3.361A2.483,2.483,0,0,1,219.512,124.946Z" transform="translate(-214.445 -82.206)" fill="#141414"/>
        <path id="Path_18" data-name="Path 18" d="M220.149,105.625a2.483,2.483,0,1,1-1.02-3.36A2.484,2.484,0,0,1,220.149,105.625Z" transform="translate(-214.669 -75.418)" fill="#141414"/>
        <path id="Path_19" data-name="Path 19" d="M218.905,143.374a2.483,2.483,0,1,1-1.02-3.36A2.483,2.483,0,0,1,218.905,143.374Z" transform="translate(-214.232 -88.681)" fill="#141414"/>
      </g>
      <g id="Group_22" data-name="Group 22" transform="translate(43.052 0.294)">
        <path id="Path_20" data-name="Path 20" d="M207.748,65.621a2.483,2.483,0,1,1,2.563-2.4A2.483,2.483,0,0,1,207.748,65.621Z" transform="translate(-203.665 -60.656)" fill="#141414"/>
        <path id="Path_21" data-name="Path 21" d="M209.345,84.777a2.483,2.483,0,1,1-1.02-3.36A2.483,2.483,0,0,1,209.345,84.777Z" transform="translate(-203.428 -67.847)" fill="#141414"/>
        <path id="Path_22" data-name="Path 22" d="M208.034,124.567a2.483,2.483,0,1,1-1.02-3.36A2.483,2.483,0,0,1,208.034,124.567Z" transform="translate(-202.967 -81.828)" fill="#141414"/>
        <path id="Path_23" data-name="Path 23" d="M208.671,105.247a2.483,2.483,0,1,1-1.02-3.36A2.484,2.484,0,0,1,208.671,105.247Z" transform="translate(-203.191 -75.04)" fill="#141414"/>
        <path id="Path_24" data-name="Path 24" d="M207.427,143a2.483,2.483,0,1,1-1.02-3.36A2.483,2.483,0,0,1,207.427,143Z" transform="translate(-202.754 -88.303)" fill="#141414"/>
      </g>
      <g id="Group_23" data-name="Group 23" transform="translate(35.607 0.048)">
        <path id="Path_25" data-name="Path 25" d="M196.27,65.242a2.483,2.483,0,1,1,2.563-2.4A2.483,2.483,0,0,1,196.27,65.242Z" transform="translate(-192.187 -60.277)" fill="#141414"/>
        <path id="Path_26" data-name="Path 26" d="M197.867,84.4a2.483,2.483,0,1,1-1.02-3.36A2.483,2.483,0,0,1,197.867,84.4Z" transform="translate(-191.95 -67.469)" fill="#141414"/>
        <path id="Path_27" data-name="Path 27" d="M196.556,124.189a2.483,2.483,0,1,1-1.02-3.36A2.483,2.483,0,0,1,196.556,124.189Z" transform="translate(-191.489 -81.449)" fill="#141414"/>
        <path id="Path_28" data-name="Path 28" d="M197.193,104.869a2.483,2.483,0,1,1-1.02-3.36A2.484,2.484,0,0,1,197.193,104.869Z" transform="translate(-191.713 -74.661)" fill="#141414"/>
        <path id="Path_29" data-name="Path 29" d="M195.949,142.618a2.483,2.483,0,1,1-1.02-3.36A2.483,2.483,0,0,1,195.949,142.618Z" transform="translate(-191.276 -87.925)" fill="#141414"/>
      </g>
      <g id="Group_24" data-name="Group 24" transform="translate(28.162 -0.197)">
        <path id="Path_30" data-name="Path 30" d="M184.792,64.864a2.483,2.483,0,1,1,2.563-2.4A2.483,2.483,0,0,1,184.792,64.864Z" transform="translate(-180.709 -59.899)" fill="#141414"/>
        <path id="Path_31" data-name="Path 31" d="M186.389,84.021a2.483,2.483,0,1,1-1.02-3.36A2.483,2.483,0,0,1,186.389,84.021Z" transform="translate(-180.472 -67.091)" fill="#141414"/>
        <path id="Path_32" data-name="Path 32" d="M185.078,123.811a2.483,2.483,0,1,1-1.02-3.36A2.483,2.483,0,0,1,185.078,123.811Z" transform="translate(-180.011 -81.071)" fill="#141414"/>
        <path id="Path_33" data-name="Path 33" d="M185.715,104.491a2.483,2.483,0,1,1-1.02-3.361A2.484,2.484,0,0,1,185.715,104.491Z" transform="translate(-180.235 -74.283)" fill="#141414"/>
        <path id="Path_34" data-name="Path 34" d="M184.471,142.239a2.483,2.483,0,1,1-1.02-3.36A2.483,2.483,0,0,1,184.471,142.239Z" transform="translate(-179.798 -87.546)" fill="#141414"/>
      </g>
      <g id="Group_25" data-name="Group 25" transform="translate(20.717 -0.442)">
        <path id="Path_35" data-name="Path 35" d="M173.314,64.486a2.483,2.483,0,1,1,2.563-2.4A2.483,2.483,0,0,1,173.314,64.486Z" transform="translate(-169.231 -59.521)" fill="#141414"/>
        <path id="Path_36" data-name="Path 36" d="M174.911,83.643a2.483,2.483,0,1,1-1.02-3.361A2.483,2.483,0,0,1,174.911,83.643Z" transform="translate(-168.994 -66.712)" fill="#141414"/>
        <path id="Path_37" data-name="Path 37" d="M173.6,123.433a2.483,2.483,0,1,1-1.02-3.36A2.483,2.483,0,0,1,173.6,123.433Z" transform="translate(-168.533 -80.693)" fill="#141414"/>
        <path id="Path_38" data-name="Path 38" d="M174.237,104.113a2.483,2.483,0,1,1-1.02-3.361A2.483,2.483,0,0,1,174.237,104.113Z" transform="translate(-168.757 -73.905)" fill="#141414"/>
        <path id="Path_39" data-name="Path 39" d="M172.993,141.861a2.483,2.483,0,1,1-1.02-3.36A2.483,2.483,0,0,1,172.993,141.861Z" transform="translate(-168.32 -87.168)" fill="#141414"/>
      </g>
      <g id="Group_26" data-name="Group 26" transform="translate(13.272 -0.687)">
        <path id="Path_40" data-name="Path 40" d="M161.836,64.108a2.483,2.483,0,1,1,2.563-2.4A2.483,2.483,0,0,1,161.836,64.108Z" transform="translate(-157.753 -59.143)" fill="#141414"/>
        <path id="Path_41" data-name="Path 41" d="M163.433,83.264a2.483,2.483,0,1,1-1.02-3.36A2.482,2.482,0,0,1,163.433,83.264Z" transform="translate(-157.516 -66.334)" fill="#141414"/>
        <path id="Path_42" data-name="Path 42" d="M162.122,123.055a2.483,2.483,0,1,1-1.02-3.36A2.483,2.483,0,0,1,162.122,123.055Z" transform="translate(-157.055 -80.315)" fill="#141414"/>
        <path id="Path_43" data-name="Path 43" d="M162.759,103.734a2.483,2.483,0,1,1-1.02-3.36A2.483,2.483,0,0,1,162.759,103.734Z" transform="translate(-157.279 -73.527)" fill="#141414"/>
        <path id="Path_44" data-name="Path 44" d="M161.515,141.483a2.483,2.483,0,1,1-1.02-3.36A2.483,2.483,0,0,1,161.515,141.483Z" transform="translate(-156.842 -86.79)" fill="#141414"/>
      </g>
      <g id="Group_27" data-name="Group 27" transform="translate(5.826 -0.933)">
        <path id="Path_45" data-name="Path 45" d="M150.358,63.73a2.483,2.483,0,1,1,2.563-2.4A2.483,2.483,0,0,1,150.358,63.73Z" transform="translate(-146.275 -58.765)" fill="#141414"/>
        <path id="Path_46" data-name="Path 46" d="M151.955,82.886a2.483,2.483,0,1,1-1.02-3.36A2.483,2.483,0,0,1,151.955,82.886Z" transform="translate(-146.038 -65.956)" fill="#141414"/>
        <path id="Path_47" data-name="Path 47" d="M150.644,122.676a2.483,2.483,0,1,1-1.02-3.36A2.483,2.483,0,0,1,150.644,122.676Z" transform="translate(-145.577 -79.937)" fill="#141414"/>
        <path id="Path_48" data-name="Path 48" d="M151.281,103.356a2.483,2.483,0,1,1-1.02-3.36A2.483,2.483,0,0,1,151.281,103.356Z" transform="translate(-145.801 -73.149)" fill="#141414"/>
        <path id="Path_49" data-name="Path 49" d="M150.037,141.105a2.483,2.483,0,1,1-1.02-3.36A2.483,2.483,0,0,1,150.037,141.105Z" transform="translate(-145.364 -86.412)" fill="#141414"/>
      </g>
      <g id="Group_28" data-name="Group 28" transform="translate(-1.619 -1.178)">
        <path id="Path_50" data-name="Path 50" d="M138.88,63.352a2.483,2.483,0,1,1,2.563-2.4A2.483,2.483,0,0,1,138.88,63.352Z" transform="translate(-134.797 -58.387)" fill="#141414"/>
        <path id="Path_51" data-name="Path 51" d="M140.477,82.508a2.483,2.483,0,1,1-1.02-3.36A2.483,2.483,0,0,1,140.477,82.508Z" transform="translate(-134.56 -65.578)" fill="#141414"/>
        <path id="Path_52" data-name="Path 52" d="M139.166,122.3a2.483,2.483,0,1,1-1.02-3.36A2.483,2.483,0,0,1,139.166,122.3Z" transform="translate(-134.099 -79.559)" fill="#141414"/>
        <path id="Path_53" data-name="Path 53" d="M139.8,102.978a2.483,2.483,0,1,1-1.02-3.36A2.483,2.483,0,0,1,139.8,102.978Z" transform="translate(-134.323 -72.771)" fill="#141414"/>
        <path id="Path_54" data-name="Path 54" d="M138.559,140.727a2.483,2.483,0,1,1-1.02-3.36A2.483,2.483,0,0,1,138.559,140.727Z" transform="translate(-133.886 -86.034)" fill="#141414"/>
      </g>
    </g>
  </g>
</svg>
