<svg xmlns="http://www.w3.org/2000/svg" width="24.608" height="101.471" viewBox="0 0 24.608 101.471">
  <g id="Shape" transform="translate(16.347 101.471) rotate(180)">
    <path id="Path_223" data-name="Path 223" d="M48.368,64.785c-.195,5.4-5.554,7.495-10.737,9.52-4.021,1.572-8.579,3.353-8.679,6.105s4.318,4.854,8.214,6.712c5.022,2.393,10.216,4.868,10.019,10.266S41.633,104.88,36.45,106.9c-4.021,1.571-8.579,3.351-8.679,6.1s4.318,4.854,8.214,6.712C41.008,122.112,46.2,124.586,46,129.984s-5.554,7.489-10.737,9.512c-4.021,1.57-8.579,3.349-8.677,6.1a1.668,1.668,0,0,1-1.479,1.785,1.667,1.667,0,0,1-1.345-1.887c.195-5.4,5.554-7.489,10.737-9.512,4.021-1.57,8.577-3.349,8.677-6.1s-4.317-4.855-8.214-6.713c-5.021-2.393-10.214-4.868-10.019-10.266s5.555-7.493,10.738-9.517c4.02-1.571,8.577-3.351,8.677-6.1s-4.317-4.855-8.213-6.713C31.128,88.179,25.934,85.7,26.13,80.307s5.554-7.495,10.735-9.518c4.022-1.572,8.58-3.353,8.679-6.106s-4.317-4.859-8.214-6.718c-5.021-2.395-10.214-4.871-10.018-10.271a1.668,1.668,0,0,1,1.479-1.785A1.669,1.669,0,0,1,30.136,47.8c-.1,2.753,4.317,4.858,8.213,6.717C43.371,56.908,48.564,59.383,48.368,64.785Z" transform="translate(-32.026 -45.907)" fill="#0f0f0f"/>
  </g>
</svg>
